<?xml version="1.0" encoding="UTF-8"?>
<svg id="Capa_1" data-name="Capa 1" xmlns="http://www.w3.org/2000/svg" viewBox="0 0 595.28 431.71" fill="#e60000">
  <defs>
    <style>
      .cls-1 {
        fill: rgba(255,255,255,0);
      }
    </style>
  </defs>
  <g id="oDGv80">
    <g>
      <path class="cls-1" d="M298.49,50.78l13.14,7.18-2.62-15.11,10.76-10.4-14.9-2.36-6.9-13.8-6.54,13.85-14.79,2.25,10.57,10.59-2.52,14.89,13.81-7.07ZM244.74,60.17l14.62,2.78-6.89-13.57,7.18-13.03-15.02,2.19-10.17-11-2.66,15.1-13.5,6.51,13.48,6.84,2.29,15,10.67-10.83ZM353.35,60.85l10.71,10.66,2.28-15.04,13.39-7.05-13.56-6.43-2.73-15.09-10.32,11.18-14.97-2.29,7.23,13.43-6.66,13.44,14.63-2.81ZM399.95,81.83l8.06,13.31,5.11-14.71,14.51-4.16-11.99-9.35.63-14.85-12.57,8.4-13.95-5.29,4.22,14.37-9.57,11.9,15.54.39ZM179.13,83.43l7.18,13.89,6.52-14.14,14.99-2.16-10.96-10.64,2.04-14.99-13.18,7.25-13.54-6.73,2.52,14.8-10.4,10.91,14.83,1.8ZM265.58,149.14c1.2,0,3.71,1.21,4.21,2.19,1.64,3.27,3.31,7.23,3.81,10.83.61,4.28-7.91,3.84-9.02,5.21l.04,20.43c0,1.27,2.18,2.18,3.36,1.93,17.81-3.65,29.73.83,32.1-.2.57-.25,1.3-1.74,1.3-2.37l-.05-19.5c-1.38-2.37-8.44-.58-9.88-3.26-2.56-4.74-4.22-9.57-5.79-14.78-.79-2.63-.06-5.76.59-8.29-2.83-1.83-5.52-4.3-6.64-7.63l-4.81-14.26c3.33-1.38,8.22.68,8.22-3.67v-16.61c-.01-1.05-1.35-2.49-2.59-2.27-14.44,2.51-28.61,2.45-43.06.04-1.52-.25-3.16.81-3.17,2.26l-.05,16.48c0,1.84,1.37,3.02,3.14,3.12l4.97.28c-2.83,7.46-4.63,18.29-11.65,22.38,3.43,5.53-2.11,16.99-5.02,22.77-1.37,2.72-7.93,1.45-9.62,3.32l-.1,20.24c0,1.33,2.05,2.11,3.29,1.94,15.93-2.14,14.56-2.26,30.09-.02.89.13,2.01.08,2.49-.3.4-.31.92-1.64.92-2.34l-.13-19.78-6.17-1.62c-1.97-.52-3.43-2.34-2.61-4.43l3.36-8.51c.71-1.8,2.86-3.49,4.91-3.51l13.56-.08ZM372.25,150.78l-10.69-.07c-1.91-.01-2.99,1.06-3.03,2.97l-.13,6.87c-.06,3.16-2.32,5.26-5.37,5.58-4.5.48-14.16,1.82-14.2-3.81-.04-6.52-.23-16.16,3.78-20.88-4.46-4.13-3.96-13.36-3.58-19.53.09-1.35,2.87-2.97,4.22-3l9.9-.2c.91-.02,2.35-1.48,2.35-2.35l-.04-17.18c0-1.3-1.6-2.42-2.93-2.26l-11.74,1.4c-9.53,1.14-18.95-.17-28.54-1.36-1.46-.18-3.1.66-3.11,2.21l-.05,16.63c0,1.27,1.22,2.87,2.46,2.88l6.89.06c1.04,0,3.59,1.05,3.65,2.27.23,4.98.17,9.94-.49,15.14-.2,1.61-2.01,3.71-2.95,5.07,4.12,4.9,4.05,16.45,3.19,22.21-.68,4.52-10.26,2.24-12.63,3.83l-.11,20.03c0,1.59,1.49,2.74,3.15,2.63,10.1-.64,19.85-1.98,30.05-1.87s19.88,1.28,30.08,1.95c1.26.08,2.21-.96,2.21-2.21l.04-34.65c0-1.12-1.19-2.36-2.43-2.37ZM426.18,198.2l8.14-17.88c.83-1.83-.33-4.19-1.9-4.92l-7.76-3.63c-1.94-.91-4.08.13-4.97,2.05l-7.89,17.18c-.87,1.89.09,4.59,1.96,5.45l7.85,3.63c1.43.66,3.79-.16,4.57-1.87ZM563,175.79h-11.79s.01,11.54.01,11.54h11.79s-.01-11.54-.01-11.54ZM193.61,184.6c.17-2.95.16-4.46-.06-6.7l-162.45,2.93c12.58,3.44,24.75.86,37.23,2.05l125.28,1.71ZM490.2,183.84c2.09-.02,3.05-.32,3.08-1.95.02-1.12-.42-2.4-1.38-2.42-2.22-.06-3.37.16-3.42,1.72s.32,2.67,1.72,2.66ZM502.96,179.9c-.77-.63-3.23-.53-3.96-.07-.45,1.07-.3,3.71.62,3.69s2.56-.13,3.39-.23c.77-.09.56-2.9-.05-3.39ZM513.17,179.91c-.81-.58-3.21-.5-4.01-.12-.48,1.1-.28,3.77.63,3.71l3.4-.22c.78-.05.61-2.92-.03-3.38ZM523.55,179.48l-4.44.03.02,4.02,4.44-.03-.02-4.02ZM533.77,179.44h-4.44s.01,4.08.01,4.08h4.44s-.01-4.08-.01-4.08ZM539.53,179.47v4.03h4.33v-4.03h-4.33ZM397.79,179.63v4.17s4.5,0,4.5,0v-4.17s-4.5,0-4.5,0ZM411.96,179.97c-.76-.61-3.49-.6-3.86.31-.41,1.03-.17,3.62.74,3.57,1.23-.07,2.6-.03,3.25-.47s.47-2.93-.13-3.42ZM437.63,179.61l-.02,4.15,4.57.02.02-4.15-4.57-.02ZM452.44,179.58l-4.58.04.03,4.19,4.58-.04-.03-4.19ZM458.03,179.61l-.03,4.15,4.57.04.03-4.15-4.57-.04ZM472.47,180.16c-.54-.95-3.82-.94-4.14.12s-.19,3.6.66,3.53l3.28-.25c.74-.06.63-2.62.19-3.4ZM482.67,180.15c-.5-.98-3.82-.95-4.15.11s-.19,3.62.66,3.55l3.29-.26c.74-.06.59-2.63.2-3.4ZM65.33,278.39c-4.03-2.28-4.26-6.68-4.31-10.56-.06-4.57,0-8.81,3.12-12.52-4.13-4.54-4.47-16.69.46-20.05s11.2-3.44,16.4-1.14c6.85,3.02,2.9,13.03,5.88,13.2,4.74.27,8.58.26,13.2.21,1.35-.01,2.33-1.62,2.15-2.83-.98-6.56-1.36-12.86-.86-19.47l.99-13.13c.09-1.2-.93-2.44-2.22-2.43l-13.04.09-3.31,2.59c-8.14-5.54-22.99-3.57-30.82.21-15.42,7.44-2.51,26.67-13.13,42.17,8.26,10.89,2.35,30.38,6.51,38.97,2.47,5.11,7.34,8.52,12.88,9.85,10.06,2.41,20.36,2.22,30.42-.09,7.3-1.67,12.34-7.48,12.42-15.07l.23-20.68c0-.79-1.33-2.28-2.1-2.29l-11.56-.03c-5.36-.02-.48,9.06-6.14,12.65-4.86,3.09-12,3.26-17.15.35ZM436.7,303.08c8.19-2.12,12.51-8.73,12.49-16.55-.03-9.87-.86-22.92,4.27-31.38-2.79-3.79-4.28-8.45-4.33-13.45l-.16-16.49c-.06-5.93-3.28-10.69-8.71-12.96-11.38-4.76-30.73-4.54-42.24-.75-19.69,6.47-4.51,28.06-15.93,43.2,5.44,7.18,5.08,20.59,4.73,29.54-.36,9.15,4.6,16.78,13.89,19.05,11.52,2.82,24.19,2.84,35.99-.22ZM165.94,266.17l2.92,7.7c.41,1.07.49,3.33-.34,4.12-2.55,2.44-5.55,1.21-8.46,2.87l-.09,20.49c0,1.24,1.69,2.26,2.85,2.1,16.13-2.23,14.36-2.54,31.09-.03,1.24.19,2.88-.59,2.87-2.03l-.03-20.65c-4.18-1.91-9.25.69-11.17-4.41l-3.97-10.57c-1.27-3.38-1.04-7.16.02-10.61-6.88-2.92-8.87-14.63-11.54-21.96l5.98-.81c1.38-.19,2.53-1.57,2.53-3.09l-.03-16.65c0-1.11-1.41-2.27-2.49-2.14-19.93,2.48-23.82,2.62-43.73,0-1.27-.17-2.54.88-2.54,2.15v17.21c-.01,1.11,1.32,2.33,2.3,2.4l5.58.38c-2.67,7.23-4.53,18.95-11.5,22.53,3.04,5.41-2.41,17.82-5.09,22.99-1.47,2.84-9.09.78-9.55,3.29l.13,19.32c0,.61.43,2.02.92,2.3.39.22,1.32.29,1.9.22,17.7-2.11,13.34-2.32,31.09.17,1.22.17,2.48-.93,2.47-2.23l-.08-20.48-5.87-1.43c-.85-.21-2.15-.96-2.6-1.59s-.39-2.59-.08-3.38l3.07-7.97c.7-1.81,3.06-3.53,5.16-3.6,4.87-.15,9.27-.14,14.14-.01,1.83.05,3.51,1.77,4.13,3.39ZM245.57,258.76c4.37,1.39,6.79,5.97,6.81,10.14l.13,26.69c.02,3.56,2.88,6.6,6.1,7.12,3.74.61,7.32.88,11.06.86l14.3-.06c.94,0,2.42-1.13,2.42-2.14l.03-18.95c0-1.13-1.23-2.38-2.3-2.42l-7.01-.21c-6.91-.2-3.01-8.75-5.51-14.42-3.09-7.02-12.73-1.81-13.09-9.74,5.83-1.11,11.81-2.36,13.62-8.77,1.92-6.85,2.09-13.79.7-20.69-2.51-12.51-15.05-17.29-26.95-15.56-16.6,2.42-21.95,1.82-38.67-.06-1.2-.14-2.48.8-2.48,2.05v16.64c-.02,5.93,8.15,1.38,10.74,5.27.41,5.72.84,16.06-3.04,20.23,1.52,2.42,2.96,5.4,3.01,8.41l.16,11.97c.09,6.64-7.38,3.84-10.82,5.69l-.06,19.4c0,1.68,1.33,3.4,3.08,3.3l17.08-.97c9.46-.54,16.66,3.46,16.64-1.92l-.07-19.12c-1.92-2.29-6.23-1.06-8.58-3.3-.78-.74-1.11-2.88-1.06-4.09l.5-11.5c.27-6.14,10.76-4.67,13.26-3.87ZM298.16,303.41c9.96-1.83,19.39-2.16,29.18-1.26l15.54,1.43c11.78,1.08,25.63-6.57,25.35-20.52-.05-2.35,1.06-4.74,2.33-6.61-1.81-1.89-2.79-4.25-2.88-6.87-.24-7.19-4.7-12.78-12.17-14.3,7.62-2.27,12.46-7.65,12.48-15.34,0-2.61,1.21-5.15,2.7-7.18-5.36-4.69-.08-11.43-9.39-17.6-5.8-3.84-12.92-5.84-20.19-4.71-14.71,2.28-29.13,2.64-43.87.2-.63-.1-1.84.2-2.2.62-.29.33-.67,1.54-.67,1.99v16.58c0,1.04,1.43,2.83,2.46,2.85l6.38.11c1.3.02,4.1.71,4.22,2.14.44,5.22.63,16.32-3.4,20.05,4.02,5.74,3.75,13.87,3.46,21.3-.06,1.63-1.98,3.53-3.61,3.55l-6.28.09c-1.96.03-3.25,1.07-3.25,3.14l.05,17.69c0,1.87,1.82,2.99,3.75,2.63ZM526.32,303.08l12.34-.06c.8,0,1.79-1.32,1.79-2.24l.18-35.58c.02-3.77,1.47-7.19,3.35-10.19-2.57-2.71-3.44-5.86-3.47-9.31l-.09-9.21c-.01-1.33,1.64-3.39,2.98-3.47l6.17-.38c1.15-.07,2.72-.98,2.72-2.35l.03-17.56c0-1.37-1.43-2.45-2.83-2.18-12.05,2.29-23.74,1.99-35.82-.06-.62-.11-2.06.18-2.48.56s-.86,1.61-.86,2.22l.03,16.45c0,1.68,1.63,2.88,3.24,2.93l7.27.23c.81.03,2.84,1.26,2.85,2.13.06,3.77.82,8.83-.47,12.63-1.61,2.9-8.98,3.07-10.69-.14l-19.23-36.08c-.91-.84-3.58-1.02-4.84-.69-6.9,1.83-13.28,1.8-20.26.24-1.56-.35-3.41-.34-5.03.26l.03,19.42c0,.95,1.97,2.03,2.75,2.02l6.97-.04c1.15,0,3.04,1.31,3.03,2.5l-.14,11.69c-.04,3.09-1.64,6.07-3.43,8.32,4.16,4.97,3.81,14.43,3.48,20.91-.08,1.57-2.12,3.53-3.57,3.59l-6.37.25c-1.43.06-2.78,1.07-2.77,2.61l.06,17.61c0,.81.58,2.2,1.2,2.55.51.3,2.15.53,2.8.41,11.58-2.13,22.95-2.04,34.53.05.65.12,2.18-.24,2.62-.62s.8-1.6.8-2.3l.05-17.15c0-1.72-1.09-3.1-2.86-3.19l-6.3-.33c-1.04-.05-3.21-1.64-3.25-2.66-.15-3.95-.98-7.93.58-11.68,1.12-2.68,8.91-3.14,10.48-.08l18.06,35.14c.86,1.67,2.33,2.84,4.37,2.83ZM31.71,255.74c0-3.6-2.92-6.53-6.53-6.53s-6.53,2.92-6.53,6.53,2.92,6.53,6.53,6.53,6.53-2.92,6.53-6.53ZM576.62,290.01c0-5.87-4.76-10.63-10.63-10.63s-10.63,4.76-10.63,10.63,4.76,10.63,10.63,10.63,10.63-4.76,10.63-10.63ZM95.17,325.06l98.81,1.5-.22-6.71-93.14,1.39-67.49,1.1c-.34,0-1.56.63-1.33.88s.97.75,1.7.76l61.67,1.08ZM559.21,323.96c.52,0,1.27-1.18.99-1.31-.19-.09-.87-.34-1.61-.36l-62.98-1.04-97.53-1.38.16,6.69,71.09-1.07,89.89-1.53ZM169.45,352.75c-.29-2.86.08-5.45,1.36-7.94,2.6-2.93,2.52-6.95,1.01-10.13-1.07,2.03-1.96,3.61-3.35,4.95-3.79,3.66-3.1,9.77.98,13.12ZM422.46,352.74c2.2-1.89,3.47-4.61,3.58-6.96.26-5.57-3.94-5.97-5.81-11.08-4.11,8.82,3.52,8.29,2.23,18.03ZM209.32,377.94l2.12,16.75c1.66.05,3.06.02,4.38-.17l-7.44-56.79c-1.19-.28-2.66-.22-3.63.3l-7.11,56.62,4.43.16,2.05-17,5.2.13ZM250.29,388.2l-.03-21.44c0-3.13-2.45-5.86-5.47-5.98l-5.61-.23c-1.56-.06-2.86-1.37-2.83-3.08l.26-14.34c2.26-1.93,6.2-1.95,8.81-.26l.39,12.84c1.35.22,3.29.16,4.32-.22l-.04-11.68c-.01-2.94-1.94-5.65-4.95-6.15-2.61-.43-5.54-.42-8.13.06-3.08.58-5.21,3.27-5.2,6.33l.05,14.74c.01,4.07,3.31,6.56,7.21,6.31,2.25-.14,4.32.31,6.51,1.34l-.09,22.94c-2.35,1.77-7.27,1.98-8.96-.3l-.39-12.8c-1.57,0-3.07.1-4.49.34l.17,12.42c.09,6.66,8.52,6.15,12.79,5.75,3.27-.3,5.68-3.09,5.68-6.59ZM280.46,394.86l4.36-.49-7.32-56.66c-1.18-.21-2.49-.21-3.64-.01l-7.05,56.64c1.24.63,3.43.66,4.49-.07l1.92-16.37h5.25s1.99,16.96,1.99,16.96ZM319.13,388.39v-44.54c-.01-3.4-2.45-6.19-5.89-6.21l-10.98-.06-.11,57.13,10.9-.06c3.32-.02,6.09-2.49,6.09-6.26ZM352.39,394.61c2.97-.49,4.71-3.2,4.72-5.98v-44.22c0-3.29-1.95-6.18-5.28-6.75-2.74-.47-6.02-.42-8.65.14-3.31.71-4.75,3.48-4.75,6.6l-.05,43.12c0,3.66,2,6.82,5.82,7.27,2.52.3,5.48.28,8.2-.17ZM394.2,388.7v-21.59c0-9.25-11.12-5-13.81-7.64l-.03-16.19c1.15-1.33,3.85-1.62,5.58-1.59,2.35.04,3.78,1.15,3.78,3.37v10.77s4.42-.02,4.42-.02l-.02-12.04c0-3.01-2.29-5.74-5.36-6.15-4.58-.61-12.77-.82-12.98,5.73-.17,5.11-.18,10.11-.09,15.22.18,9.69,12,4.52,13.93,8.32l.08,20.91c.01,3.8-7.62,3.34-9.34,1.46l-.44-12.68c-1.01-.42-3.16-.4-4.34.02l.06,12.11c.01,2.74,1.9,5.25,4.51,5.85,4.92,1.14,14.05,1.19,14.05-5.86ZM425.97,380.01c-.31-9,4.52-12.09,6.25-20.75,1.06-5.6.05-11.16-3.77-15.45-.24,2.67-.82,5.12-2.17,7.42l-6.05,10.37c-3.93,6.74-.98,15.23,5.74,18.41ZM165.89,380.13c6.83-3,8.7-10.26,6.63-16.69-2.99-7.54-7.66-10.6-9.15-19.22-6.85,7.59-3.75,17.24.47,25.36,1.72,3.31,2.2,6.74,2.05,10.55ZM149.13,388.31l5.33-9.87c3.91-7.25,5.07-17.74-2.13-23.31-.23,3.81-.23,7.53-2.21,10.48-3.52,5.23-6.9,10.11-10.11,15.48-3.92,6.56-3.94,14.62.71,20.77,3.2,4.25,7.92,7.04,13.19,7.97-4.01-7.33-8.99-13.72-4.78-21.52ZM438.07,409.67c12.01-1.59,19.84-13.69,15.61-24.44-6.2-15.75-14.48-16.4-14.08-30.27-7.81,5.94-5.31,17.74-1.5,24.61l4.87,8.78c4.31,7.76-1.29,14.39-4.9,21.32ZM174.39,397.79c9.43-7.67,11.85-18.77,3.76-29.06-3.2,13.32-13.75,15.56-17.74,25.74-2.69,6.85-.24,14.82,6.56,17.62.34-8.69,1.06-9.13,7.43-14.3ZM432.07,404.23c1.46-5.35-.12-10.42-3.13-14.72-6.86-8.08-11.63-9.14-15.13-20.46-3.48,4.16-5.58,9.3-4.74,14.66,1.05,6.7,5.39,12.04,10.79,15.94,4.08,2.95,6.01,7,5.11,12.41,3.83-1.17,6.06-4.05,7.1-7.83ZM159.64,388.24c2.07-6.93,7.33-9.27,2.34-16.06.25,2.93-.57,5.2-2.44,7.29-2.26,2.53-2.99,6.83.1,8.77ZM432.21,388.36c6.54-6.17-3.12-9.18-2.3-15.96-4.87,7.32.87,8.7,2.3,15.96Z"/>
      <path d="M526.32,303.08c-2.04,0-3.51-1.16-4.37-2.83l-18.06-35.14c-1.57-3.06-9.36-2.6-10.48.08-1.57,3.75-.73,7.73-.58,11.68.04,1.03,2.21,2.61,3.25,2.66l6.3.33c1.77.09,2.87,1.47,2.86,3.19l-.05,17.15c0,.69-.36,1.92-.8,2.3s-1.98.73-2.62.62c-11.58-2.09-22.94-2.18-34.53-.05-.65.12-2.29-.11-2.8-.41-.61-.36-1.2-1.74-1.2-2.55l-.06-17.61c0-1.54,1.34-2.55,2.77-2.61l6.37-.25c1.46-.06,3.49-2.01,3.57-3.59.33-6.47.69-15.93-3.48-20.91,1.78-2.25,3.39-5.23,3.43-8.32l.14-11.69c.01-1.18-1.88-2.5-3.03-2.5l-6.97.04c-.78,0-2.75-1.07-2.75-2.02l-.03-19.42c1.62-.6,3.47-.61,5.03-.26,6.98,1.56,13.36,1.6,20.26-.24,1.26-.33,3.93-.15,4.84.69l19.23,36.08c1.71,3.21,9.08,3.04,10.69.14,1.29-3.81.52-8.86.47-12.63-.01-.87-2.04-2.11-2.85-2.13l-7.27-.23c-1.62-.05-3.24-1.25-3.24-2.93l-.03-16.45c0-.61.43-1.85.86-2.22s1.86-.66,2.48-.56c12.08,2.05,23.78,2.34,35.82.06,1.41-.27,2.84.81,2.83,2.18l-.03,17.56c0,1.36-1.58,2.28-2.72,2.35l-6.17.38c-1.34.08-2.99,2.14-2.98,3.47l.09,9.21c.03,3.45.9,6.6,3.47,9.31-1.88,3.01-3.33,6.43-3.35,10.19l-.18,35.58c0,.92-.99,2.23-1.79,2.24l-12.34.06Z"/>
      <path d="M298.16,303.41c-1.92.35-3.74-.76-3.75-2.63l-.05-17.69c0-2.07,1.28-3.11,3.25-3.14l6.28-.09c1.63-.02,3.55-1.92,3.61-3.55.29-7.43.56-15.56-3.46-21.3,4.02-3.73,3.84-14.83,3.4-20.05-.12-1.43-2.92-2.12-4.22-2.14l-6.38-.11c-1.02-.02-2.47-1.81-2.46-2.85v-16.58c0-.45.39-1.66.68-1.99.36-.42,1.56-.72,2.2-.62,14.74,2.44,29.16,2.08,43.87-.2,7.27-1.13,14.39.87,20.19,4.71,9.31,6.17,4.03,12.92,9.39,17.6-1.49,2.03-2.69,4.57-2.7,7.18-.03,7.69-4.86,13.07-12.48,15.34,7.47,1.52,11.92,7.1,12.17,14.3.09,2.62,1.07,4.98,2.88,6.87-1.28,1.87-2.38,4.26-2.33,6.61.28,13.94-13.57,21.6-25.35,20.52l-15.54-1.43c-9.79-.9-19.22-.57-29.18,1.26ZM343.48,252.18c3.25-.03,5.44-3.11,5.44-5.93v-9.66c-.02-2.46-2.17-4.31-4.53-4.3l-15.45.08c-3.08.02-5.11,2.81-5.09,5.51l.06,9.9c.02,2.51,2.32,4.53,4.8,4.51l14.77-.12ZM344.37,279.88c2.78-.02,4.69-2.4,4.68-4.64l-.04-13.15c0-2-1.82-3.9-3.82-3.89l-16.91.09c-2.84.02-4.49,2.4-4.49,4.9l.02,12.58c0,2.1,1.83,4.21,4.11,4.2l16.45-.09Z"/>
      <path d="M245.57,258.76c-2.5-.8-12.99-2.27-13.26,3.87l-.5,11.5c-.05,1.21.28,3.35,1.06,4.09,2.36,2.23,6.66,1,8.58,3.3l.07,19.12c.02,5.38-7.19,1.38-16.64,1.92l-17.08.97c-1.76.1-3.09-1.62-3.08-3.3l.06-19.4c3.45-1.85,10.91.95,10.82-5.69l-.16-11.97c-.04-3.01-1.48-6-3.01-8.41,3.88-4.17,3.45-14.51,3.04-20.23-2.59-3.89-10.76.65-10.76-5.27v-16.64c.01-1.25,1.3-2.19,2.5-2.05,16.72,1.88,22.07,2.48,38.67.06,11.9-1.73,24.44,3.04,26.95,15.56,1.39,6.91,1.22,13.84-.7,20.69-1.8,6.42-7.79,7.67-13.62,8.77.36,7.93,10,2.72,13.09,9.74,2.49,5.67-1.41,14.22,5.51,14.42l7.01.21c1.07.03,2.3,1.29,2.3,2.42l-.03,18.95c0,1-1.47,2.13-2.42,2.14l-14.3.06c-3.74.02-7.32-.26-11.06-.86-3.22-.52-6.09-3.57-6.1-7.12l-.13-26.69c-.02-4.17-2.44-8.75-6.81-10.14ZM251.57,248.06l-.2-11.91c-2.27-4.26-10.34-3.45-14.86-3.14-1.91.13-4.01,2.32-4.11,4.17l-.54,9.64c-.15,2.72,1.64,5.27,4.46,5.43,4.8.27,15.36,1.51,15.26-4.19Z"/>
      <path d="M436.7,303.08c-11.8,3.05-24.47,3.04-35.99.22-9.29-2.28-14.25-9.9-13.89-19.05.36-8.94.71-22.36-4.73-29.54,11.42-15.14-3.76-36.73,15.93-43.2,11.52-3.78,30.86-4,42.24.75,5.42,2.27,8.65,7.03,8.71,12.96l.16,16.49c.05,4.99,1.54,9.66,4.33,13.45-5.13,8.46-4.3,21.51-4.27,31.38.02,7.82-4.29,14.43-12.49,16.55ZM430.92,277.15c1.59-5.62,3.09-17.19-1.14-21.85,3.21-5.98,3.77-13.33.7-19.67-2.22-4.58-15.26-3.7-19.63-3.09-9.12,1.28-8.32,17.32-4.57,22.96-3.97,4.45-2.77,14.75-1.71,19.91.69,3.37,3.51,5.85,6.99,6.07,5.22.34,17.73,1.43,19.37-4.35Z"/>
      <path d="M265.58,149.14l-13.56.08c-2.06.01-4.2,1.7-4.91,3.51l-3.36,8.51c-.82,2.09.64,3.91,2.61,4.43l6.17,1.62.13,19.78c0,.7-.52,2.03-.92,2.34-.48.38-1.6.43-2.49.3-15.53-2.23-14.16-2.12-30.09.02-1.24.17-3.29-.61-3.29-1.94l.1-20.24c1.7-1.86,8.26-.6,9.62-3.32,2.91-5.78,8.45-17.25,5.02-22.77,7.02-4.09,8.82-14.92,11.65-22.38l-4.97-.28c-1.78-.1-3.15-1.29-3.14-3.12l.05-16.48c0-1.46,1.64-2.52,3.17-2.26,14.45,2.41,28.62,2.47,43.06-.04,1.24-.22,2.58,1.22,2.58,2.27v16.61c.02,4.35-4.88,2.29-8.21,3.67l4.81,14.26c1.12,3.33,3.81,5.8,6.64,7.63-.65,2.54-1.38,5.66-.59,8.29,1.57,5.21,3.23,10.03,5.79,14.78,1.45,2.68,8.5.89,9.88,3.26l.05,19.5c0,.62-.72,2.12-1.3,2.37-2.37,1.03-14.29-3.45-32.1.2-1.19.24-3.36-.66-3.36-1.93l-.04-20.43c1.1-1.37,9.62-.93,9.02-5.21-.51-3.6-2.18-7.56-3.81-10.83-.49-.98-3.01-2.2-4.21-2.19ZM266.28,140.16l-5.53-15.5c-.21-.6-1.51-1.6-2.12-1.56-2.83.16-6.52,15.12-7.75,18.81,2.13,2.19,17.04,2.83,15.41-1.75Z"/>
      <path d="M165.94,266.17c-.62-1.63-2.3-3.34-4.13-3.39-4.87-.13-9.26-.14-14.14.01-2.1.07-4.46,1.79-5.16,3.6l-3.07,7.97c-.31.79-.37,2.75.08,3.38s1.75,1.38,2.6,1.59l5.87,1.43.08,20.48c0,1.29-1.26,2.4-2.47,2.23-17.75-2.5-13.4-2.28-31.09-.17-.58.07-1.51,0-1.9-.22-.49-.27-.92-1.69-.92-2.3l-.13-19.32c.46-2.51,8.08-.45,9.55-3.29,2.68-5.18,8.13-17.59,5.09-22.99,6.96-3.58,8.83-15.3,11.5-22.53l-5.58-.38c-.98-.07-2.32-1.29-2.32-2.4v-17.21c.01-1.26,1.29-2.31,2.55-2.15,19.91,2.62,23.81,2.47,43.73,0,1.08-.13,2.48,1.03,2.49,2.14l.03,16.65c0,1.52-1.14,2.9-2.53,3.09l-5.98.81c2.67,7.33,4.66,19.04,11.54,21.96-1.06,3.44-1.29,7.23-.02,10.61l3.97,10.57c1.91,5.09,6.99,2.5,11.17,4.41l.03,20.65c0,1.43-1.63,2.21-2.87,2.03-16.73-2.5-14.96-2.2-31.09.03-1.16.16-2.86-.86-2.85-2.1l.09-20.49c2.91-1.66,5.91-.43,8.46-2.87.82-.79.74-3.04.34-4.12l-2.92-7.7ZM161.81,254.38c-1.35-4.47-3.7-11.18-5.81-16.43-.26-.65-1.65-1.46-2.17-1.2-2.45,1.21-4.81,10.19-5.92,13.65-.64,1.98-1.06,3.74-1.23,5.81,2.39,1.56,16.28,1.95,15.13-1.84Z"/>
      <path d="M65.33,278.39c5.15,2.91,12.29,2.74,17.15-.35,5.66-3.59.78-12.67,6.14-12.65l11.56.03c.76,0,2.11,1.49,2.1,2.29l-.23,20.68c-.08,7.59-5.12,13.4-12.42,15.07-10.06,2.31-20.36,2.5-30.42.09-5.54-1.33-10.41-4.74-12.88-9.85-4.16-8.59,1.75-28.08-6.51-38.97,10.62-15.5-2.29-34.73,13.13-42.17,7.83-3.78,22.68-5.75,30.82-.21l3.31-2.59,13.04-.09c1.29,0,2.31,1.23,2.22,2.43l-.99,13.13c-.5,6.62-.12,12.91.86,19.47.18,1.21-.79,2.82-2.15,2.83-4.62.05-8.46.06-13.2-.21-2.98-.17.97-10.18-5.88-13.2-5.2-2.29-11.66-2.08-16.4,1.14s-4.59,15.51-.46,20.05c-3.12,3.71-3.18,7.94-3.12,12.52.05,3.88.28,8.27,4.31,10.56Z"/>
      <path d="M372.25,150.78c1.23,0,2.43,1.25,2.43,2.37l-.04,34.65c0,1.26-.96,2.29-2.21,2.21-10.2-.66-19.87-1.84-30.08-1.95s-19.95,1.23-30.05,1.87c-1.66.11-3.16-1.05-3.15-2.63l.11-20.03c2.38-1.6,11.96.69,12.63-3.83.86-5.76.93-17.31-3.19-22.21.94-1.36,2.74-3.46,2.95-5.07.65-5.2.72-10.16.49-15.14-.06-1.22-2.6-2.26-3.65-2.27l-6.89-.06c-1.25-.01-2.47-1.61-2.46-2.88l.05-16.63c0-1.55,1.64-2.39,3.11-2.21,9.59,1.19,19.01,2.5,28.54,1.36l11.74-1.4c1.33-.16,2.93.96,2.93,2.26l.04,17.18c0,.87-1.44,2.34-2.35,2.35l-9.9.2c-1.36.03-4.14,1.64-4.22,3-.39,6.17-.88,15.39,3.58,19.53-4.01,4.72-3.82,14.36-3.78,20.88.04,5.63,9.7,4.29,14.2,3.81,3.05-.33,5.31-2.42,5.37-5.58l.13-6.87c.04-1.91,1.12-2.98,3.03-2.97l10.69.07Z"/>
      <polygon points="179.13 83.43 164.3 81.64 174.7 70.72 172.18 55.93 185.72 62.66 198.9 55.41 196.86 70.4 207.82 81.04 192.83 83.19 186.31 97.33 179.13 83.43"/>
      <polygon points="399.95 81.83 384.41 81.44 393.98 69.54 389.76 55.17 403.71 60.46 416.28 52.06 415.65 66.91 427.64 76.27 413.13 80.43 408.01 95.14 399.95 81.83"/>
      <polygon points="353.35 60.85 338.73 63.66 345.39 50.23 338.16 36.8 353.12 39.09 363.45 27.91 366.17 43 379.73 49.43 366.34 56.48 364.07 71.51 353.35 60.85"/>
      <polygon points="298.49 50.78 284.68 57.85 287.21 42.96 276.64 32.37 291.43 30.13 297.97 16.28 304.87 30.08 319.77 32.44 309.01 42.84 311.63 57.95 298.49 50.78"/>
      <polygon points="244.74 60.17 234.07 71 231.78 56 218.29 49.16 231.79 42.65 234.46 27.55 244.63 38.54 259.65 36.35 252.46 49.38 259.35 62.95 244.74 60.17"/>
      <path d="M559.21,323.96l-89.89,1.53-71.09,1.07-.16-6.69,97.53,1.38,62.98,1.04c.74.01,1.43.27,1.61.36.28.13-.48,1.3-.99,1.31Z"/>
      <path d="M95.17,325.06l-61.67-1.08c-.74-.01-1.48-.51-1.7-.76s.99-.88,1.33-.88l67.49-1.1,93.14-1.39.22,6.71-98.81-1.5Z"/>
      <path d="M193.61,184.6l-125.28-1.71c-12.48-1.19-24.65,1.39-37.23-2.05l162.45-2.93c.22,2.24.23,3.75.06,6.7Z"/>
      <path d="M319.13,388.39c0,3.77-2.77,6.24-6.09,6.26l-10.9.06.11-57.13,10.98.06c3.44.02,5.88,2.81,5.88,6.21v44.54ZM314.59,389.01l-.02-46.02c-2.62-1.37-5.16-1.38-7.76-.79v47.85c2.71.45,5.35.57,7.79-1.05Z"/>
      <path d="M352.39,394.61c-2.72.45-5.69.47-8.2.17-3.82-.45-5.82-3.61-5.82-7.27l.05-43.12c0-3.12,1.44-5.89,4.75-6.6,2.63-.56,5.91-.61,8.65-.14,3.34.57,5.29,3.46,5.29,6.75v44.22c0,2.79-1.76,5.49-4.72,5.98ZM348.81,390.63c2.34-.03,3.7-.99,3.7-3.13l-.04-44.52c-3.11-1.76-6.95-1.93-9.48.34l.02,45.56c.96,1.78,3.79,1.76,5.8,1.73Z"/>
      <path d="M250.29,388.2c0,3.49-2.41,6.28-5.68,6.59-4.27.4-12.7.91-12.79-5.75l-.17-12.42c1.42-.24,2.92-.34,4.49-.34l.39,12.8c1.7,2.29,6.61,2.07,8.96.3l.09-22.94c-2.18-1.03-4.25-1.48-6.51-1.34-3.9.24-7.19-2.24-7.21-6.31l-.05-14.74c-.01-3.06,2.12-5.75,5.2-6.33,2.58-.48,5.52-.49,8.13-.06,3.01.5,4.94,3.21,4.95,6.15l.04,11.68c-1.02.38-2.97.45-4.32.22l-.39-12.84c-2.6-1.7-6.54-1.68-8.81.26l-.26,14.34c-.03,1.7,1.27,3.01,2.83,3.08l5.61.23c3.02.12,5.46,2.85,5.47,5.98l.03,21.44Z"/>
      <path d="M394.2,388.7c0,7.05-9.13,7-14.05,5.86-2.61-.6-4.5-3.11-4.51-5.85l-.06-12.11c1.18-.43,3.33-.45,4.34-.02l.44,12.68c1.71,1.88,9.35,2.35,9.34-1.46l-.08-20.91c-1.94-3.8-13.76,1.37-13.93-8.32-.09-5.11-.08-10.12.09-15.22.21-6.55,8.4-6.34,12.98-5.73,3.07.41,5.35,3.14,5.36,6.15l.02,12.04-4.41.02v-10.77c-.02-2.22-1.44-3.33-3.79-3.37-1.73-.03-4.44.26-5.58,1.59l.03,16.19c2.7,2.64,13.81-1.61,13.81,7.64v21.59Z"/>
      <path d="M149.13,388.31c-4.21,7.8.77,14.19,4.78,21.52-5.27-.94-9.99-3.73-13.19-7.97-4.64-6.15-4.63-14.21-.71-20.77,3.21-5.38,6.59-10.25,10.11-15.48,1.99-2.95,1.98-6.67,2.21-10.48,7.2,5.57,6.04,16.07,2.13,23.31l-5.33,9.87Z"/>
      <path d="M438.07,409.67c3.61-6.93,9.2-13.56,4.9-21.32l-4.87-8.78c-3.81-6.87-6.31-18.68,1.5-24.61-.4,13.88,7.88,14.53,14.08,30.27,4.23,10.74-3.6,22.85-15.61,24.44Z"/>
      <path d="M432.07,404.23c-1.03,3.78-3.27,6.67-7.1,7.83.9-5.41-1.04-9.46-5.11-12.41-5.4-3.9-9.74-9.24-10.79-15.94-.84-5.36,1.26-10.5,4.74-14.66,3.5,11.32,8.27,12.39,15.13,20.46,3.01,4.29,4.59,9.37,3.13,14.72Z"/>
      <path d="M174.39,397.79c-6.36,5.17-7.08,5.62-7.43,14.3-6.79-2.8-9.24-10.77-6.56-17.62,4-10.18,14.55-12.42,17.74-25.74,8.09,10.29,5.67,21.39-3.76,29.06Z"/>
      <path d="M280.46,394.86l-1.99-16.95h-5.25s-1.92,16.37-1.92,16.37c-1.06.73-3.25.7-4.49.07l7.05-56.64c1.15-.2,2.46-.2,3.64.01l7.32,56.66-4.36.49ZM277.83,373.23l-2.18-18.81-2.06,18.92,4.24-.11Z"/>
      <path d="M209.32,377.94l-5.2-.13-2.05,17-4.43-.16,7.11-56.62c.97-.53,2.44-.58,3.63-.3l7.44,56.79c-1.33.18-2.72.22-4.38.17l-2.12-16.75ZM208.84,373.24l-2.35-18.76-2.03,18.89,4.37-.13Z"/>
      <path d="M426.18,198.2c-.78,1.71-3.14,2.53-4.57,1.87l-7.85-3.63c-1.86-.86-2.83-3.55-1.96-5.45l7.89-17.18c.89-1.93,3.03-2.96,4.97-2.05l7.76,3.63c1.57.73,2.73,3.09,1.9,4.92l-8.14,17.88Z"/>
      <path d="M425.97,380.01c-6.72-3.18-9.68-11.67-5.74-18.41l6.05-10.37c1.34-2.3,1.93-4.76,2.17-7.42,3.82,4.29,4.83,9.84,3.77,15.45-1.72,8.66-6.56,11.75-6.25,20.75Z"/>
      <path d="M165.89,380.13c.14-3.81-.34-7.24-2.05-10.55-4.21-8.12-7.32-17.77-.47-25.36,1.49,8.62,6.16,11.68,9.15,19.22,2.07,6.43.2,13.69-6.63,16.69Z"/>
      <path d="M576.62,290.01c0,5.87-4.76,10.63-10.63,10.63s-10.63-4.76-10.63-10.63,4.76-10.63,10.63-10.63,10.63,4.76,10.63,10.63ZM574.26,290.04c0-4.56-3.69-8.25-8.25-8.25s-8.25,3.69-8.25,8.25,3.69,8.25,8.25,8.25,8.25-3.69,8.25-8.25Z"/>
      <rect x="551.22" y="175.8" width="11.79" height="11.53" transform="translate(-.22 .67) rotate(-.07)"/>
      <circle cx="25.18" cy="255.74" r="6.53"/>
      <path d="M422.46,352.74c1.29-9.75-6.34-9.21-2.23-18.03,1.87,5.11,6.07,5.5,5.81,11.08-.11,2.35-1.38,5.06-3.58,6.96Z"/>
      <path d="M169.45,352.75c-4.08-3.35-4.77-9.46-.98-13.12,1.39-1.34,2.28-2.92,3.35-4.95,1.51,3.17,1.59,7.2-1.01,10.13-1.28,2.5-1.66,5.08-1.36,7.94Z"/>
      <path d="M432.21,388.36c-1.43-7.26-7.16-8.64-2.3-15.96-.82,6.78,8.83,9.79,2.3,15.96Z"/>
      <path d="M159.64,388.24c-3.09-1.94-2.36-6.24-.1-8.77,1.87-2.09,2.69-4.36,2.44-7.29,4.99,6.79-.27,9.13-2.34,16.06Z"/>
      <path d="M490.2,183.84c-1.4.01-1.76-1.18-1.72-2.66.04-1.55,1.19-1.77,3.42-1.72.96.02,1.4,1.3,1.38,2.42-.03,1.63-.99,1.93-3.08,1.95Z"/>
      <rect x="447.88" y="179.6" width="4.58" height="4.19" transform="translate(-1.47 3.68) rotate(-.47)"/>
      <rect x="437.84" y="179.4" width="4.15" height="4.57" transform="translate(256.49 620.88) rotate(-89.77)"/>
      <rect x="458.22" y="179.42" width="4.15" height="4.57" transform="translate(274.97 640.56) rotate(-89.55)"/>
      <path d="M513.17,179.91c.64.46.81,3.33.03,3.38l-3.4.22c-.91.06-1.11-2.61-.63-3.71.8-.38,3.2-.46,4.01.12Z"/>
      <path d="M472.47,180.16c.43.77.54,3.34-.19,3.4l-3.28.25c-.86.07-1-2.45-.66-3.53s3.6-1.07,4.14-.12Z"/>
      <path d="M502.96,179.9c.61.49.82,3.29.05,3.39-.83.1-2.5.21-3.39.23s-1.07-2.62-.62-3.69c.73-.46,3.19-.56,3.96.07Z"/>
      <path d="M482.67,180.15c.39.77.54,3.34-.2,3.4l-3.29.26c-.85.07-.98-2.51-.66-3.55s3.65-1.08,4.15-.11Z"/>
      <rect x="397.96" y="179.46" width="4.17" height="4.51" transform="translate(217.54 581.4) rotate(-89.89)"/>
      <path d="M411.96,179.97c.61.49.78,2.98.13,3.42s-2.02.4-3.25.47c-.91.05-1.15-2.55-.74-3.57.37-.91,3.1-.92,3.86-.31Z"/>
      <rect x="529.33" y="179.45" width="4.44" height="4.07" transform="translate(-.47 1.4) rotate(-.15)"/>
      <rect x="519.11" y="179.49" width="4.44" height="4.02" transform="translate(-1.06 3.08) rotate(-.34)"/>
      <rect x="539.53" y="179.47" width="4.33" height="4.03"/>
      <path class="cls-1" d="M344.37,279.88l-16.45.09c-2.29.01-4.11-2.09-4.11-4.2l-.02-12.58c0-2.5,1.65-4.89,4.49-4.9l16.91-.09c2-.01,3.82,1.89,3.82,3.89l.04,13.15c0,2.24-1.9,4.63-4.68,4.64Z"/>
      <path class="cls-1" d="M343.48,252.18l-14.77.12c-2.48.02-4.79-2-4.8-4.51l-.06-9.9c-.02-2.7,2.01-5.49,5.09-5.51l15.45-.08c2.36-.01,4.52,1.84,4.52,4.3v9.66c.02,2.82-2.18,5.9-5.43,5.93Z"/>
      <path class="cls-1" d="M251.57,248.06c.1,5.7-10.46,4.45-15.26,4.19-2.82-.16-4.61-2.7-4.46-5.43l.54-9.64c.1-1.86,2.2-4.04,4.11-4.17,4.52-.32,12.59-1.12,14.86,3.14l.2,11.91Z"/>
      <path class="cls-1" d="M430.92,277.15c-1.64,5.78-14.15,4.69-19.37,4.35-3.47-.23-6.3-2.71-6.99-6.07-1.06-5.16-2.26-15.46,1.71-19.91-3.76-5.64-4.55-21.68,4.57-22.96,4.37-.61,17.41-1.49,19.63,3.09,3.07,6.34,2.51,13.69-.7,19.67,4.23,4.66,2.73,16.23,1.14,21.85Z"/>
      <path class="cls-1" d="M266.28,140.16c1.63,4.58-13.27,3.93-15.41,1.75,1.23-3.69,4.92-18.65,7.75-18.81.61-.04,1.91.96,2.12,1.56l5.53,15.5Z"/>
      <path class="cls-1" d="M161.81,254.38c1.15,3.79-12.74,3.4-15.13,1.84.17-2.07.59-3.82,1.23-5.81,1.11-3.46,3.48-12.45,5.92-13.65.52-.26,1.91.55,2.17,1.2,2.11,5.25,4.46,11.96,5.81,16.43Z"/>
      <path class="cls-1" d="M314.59,389.01c-2.44,1.61-5.08,1.5-7.79,1.05v-47.85c2.61-.59,5.14-.58,7.76.79l.02,46.02Z"/>
      <path class="cls-1" d="M348.81,390.63c-2.01.02-4.84.05-5.8-1.73l-.02-45.56c2.53-2.27,6.37-2.1,9.48-.34l.04,44.52c0,2.13-1.36,3.1-3.7,3.13Z"/>
      <polygon class="cls-1" points="277.83 373.23 273.59 373.34 275.65 354.42 277.83 373.23"/>
      <polygon class="cls-1" points="208.84 373.24 204.47 373.36 206.5 354.47 208.84 373.24"/>
      <path class="cls-1" d="M574.26,290.04c0,4.56-3.69,8.25-8.25,8.25s-8.25-3.69-8.25-8.25,3.69-8.25,8.25-8.25,8.25,3.69,8.25,8.25ZM571.11,295.15l-2.6-4.39c1.42-.67,2.43-2.5,2.17-3.9-.19-1.05-1.89-2.54-3.02-2.53l-5.82.04-.08,9.6c0,.37.2,1.64.57,1.61l1.7-.13.35-4.56c3.66.02,2.96,6.66,6.74,4.27Z"/>
      <path d="M571.11,295.15c-3.79,2.38-3.08-4.25-6.74-4.27l-.35,4.56-1.7.13c-.37.03-.57-1.24-.57-1.61l.08-9.6,5.82-.04c1.13,0,2.83,1.49,3.02,2.53.26,1.41-.75,3.23-2.17,3.9l2.6,4.39ZM567.59,286.25c-.76-.06-2.92-.08-3.35-.03l.03,2.66c0,.09,1.31.95,3.94-.45.42-.22-.12-2.14-.63-2.18Z"/>
      <path class="cls-1" d="M567.59,286.25c.51.04,1.05,1.96.63,2.18-2.64,1.4-3.94.54-3.94.45l-.03-2.66c.43-.05,2.59-.03,3.35.03Z"/>
    </g>
  </g>
</svg>