<?xml version="1.0" encoding="UTF-8"?>
<svg id="Capa_1" data-name="Capa 1" xmlns="http://www.w3.org/2000/svg" viewBox="0 0 391.46 345.12">
  <defs>
    <style>
      .cls-1 {
        fill: #e0181a;
      }
    </style>
  </defs>
  <path class="cls-1" d="M230.92,253.42c-17.17,19.73-50.61,21.86-68.61-.27-4.9-6.01-9.27-11.79-13.69-18.35l-54.97-81.67-14.41-20.69c-3.08-4.42-7-7.66-11.99-9.88l-35.91-16.06c-4.1-1.84-7.85-4.23-10.63-7.71-3.57-4.51-2.53-11.05,1.24-15.21,2.33-2.58,5.27-4.37,8.49-5.75l25.02-10.7,110.87-44.63c17.49-7.04,39.24-7.67,56.81-.58l113.47,45.71,27.46,11.44c6.98,2.92,10.68,11.85,6.98,18.51-2,3.61-6.03,5.73-9.69,7.39l-37.17,16.76c-6.15,2.78-10.8,6.84-14.55,12.52l-55.19,83.76-14.52,23.29c-2.72,4.39-5.64,8.28-9,12.13l-.02-.02ZM201.36,197.99c-.62-2,.04-3.68,1.01-5.18l54.74-85.32c3.31-5.16,8.42-7.62,13.85-10.8l-71.44-25.89c-3.25-1.18-6.7-.95-9.92.23l-70.02,25.67c6.44,2.95,11.41,6.37,15.1,12.04l72.37,111.17c.9-.32.69-1.27.44-2.02l-6.12-19.91h-.02Z"/>
  <path class="cls-1" d="M322.38,327.9c-12.29-.42-24.84-9.71-24.86-23.8l-.07-106.91c0-19.84,8.56-41.39,19.75-57.18,5.45-7.51,12.15-13,20.76-16.5l34.66-16.29-.04,197.99c0,12.04-9.42,21.4-21.11,22.49-9.83.92-19.26.51-29.11.18l.02.02Z"/>
  <path class="cls-1" d="M93.51,192.24l.09,111.29c0,12.91-9.41,23.29-22.28,24.24-9.55.71-18.83.51-28.4.12-12.7-.5-24.33-10.08-24.33-24.44l.04-194.91c1.77-.65,2.95.46,4.42,1.15l37.88,18.11c16.02,7.66,32.59,45.5,32.61,64.4l-.02.04Z"/>
</svg>