<?xml version="1.0" encoding="UTF-8"?>
<svg id="Capa_1" data-name="Capa 1" xmlns="http://www.w3.org/2000/svg" viewBox="0 0 503.29 223.11" fill="url(#logoGradient)">
  <defs>
    <style>
      .cls-1 {
        fill: rgba(255,255,255,0);
      }
    </style>
    <linearGradient id="logoGradient" x1="0%" y1="0%" x2="100%" y2="0%">
      <stop offset="0%" stop-color="#b91c1c"/>
      <stop offset="100%" stop-color="#ef4444"/>
    </linearGradient>
  </defs>
  <path class="cls-1" d="M0,223.16V.06h503.29v223.11H0ZM105.81,101.93l19.67-30.16c1.43-2.19,3.18-3.68,5.47-4.71l9.85-4.42c1.47-.66,2.57-1.99,2.54-3.54-.02-1.15-.91-2.95-2.34-3.53l-37.42-15.18c-6.14-2.49-11.97-2.51-18.12,0l-37.41,15.26c-1.56.64-2.41,2.43-2.33,3.77s1.07,2.58,2.45,3.23l11.26,5.23c2.11.98,3.31,2.96,4.59,4.87l19.04,28.49c2.74,4.09,6.26,6.82,11.17,6.95,4.65.12,8.84-2.05,11.58-6.25ZM426.73,70.43c3.43-.96,5.47-3.6,5.57-6.79.1-3.18-1.68-6.1-4.91-7.26s-7.13-1.14-10.22.3-4.57,4.18-4.31,7.27c.55,6.6,8.34,8.02,13.87,6.47ZM236.47,94.16v26.29s16.73-.03,16.73-.03l-.02-63.98-19.11.02-21.41,46.03-21.44-45.99-19.2-.03.02,63.96,16.88-.03.06-35.99,16.17,36.06,14.95-.02,2.93-6.45,13.14-29.42c.41,3.18.46,6.14.29,9.57ZM66.42,117.78l.03-30.92c-.59-4.47-1.92-8.57-4.18-12.36-1.7-3.16-4.37-5.22-7.57-6.68l-8.98-4.09v54.2c0,3.43,2.75,6.26,6.14,6.39,2.86.1,5.57.12,8.41-.03,3.34-.18,6.15-2.92,6.15-6.5ZM122.53,117.76c0,3.47,2.62,6.22,5.95,6.48,3.02.24,6.11.24,9.1,0,3.4-.27,5.7-2.98,5.7-6.34l-.04-54.24-11.62,5.39c-2.94,2.12-4.92,4.97-6.4,8.3-1.41,3.43-2.67,6.94-2.67,10.8l-.02,29.62ZM298.42,102.96c-1.53,4.19-4.68,6.55-8.69,7.47-2.7.49-5.4.52-8.11.08-5.48-1.17-9.74-5.51-9.98-11.29l44.8.02c.78-7.85-2.54-15.33-8.76-19.97s-13.92-6.52-21.82-6.5c-6.68.02-13.06.99-18.88,4.26-4.32,2.43-7.98,5.73-10.14,10.29-2.86,6.04-3.02,13.18-.13,19.24,8.08,16.98,37.33,18.88,51.21,7.91,3.67-3.13,6.55-6.6,7.84-11.54l-17.32.02ZM362.34,120.45l-.04-10.88-28.48-.12,27.99-25.07-.05-10.82h-47.13s0,10.72,0,10.72l27.55.12-27.78,24.76v11.32s47.95-.04,47.95-.04ZM411.88,120.42l-.04-10.85-28.88-.05,28.36-25.1-.07-10.85h-47.31s0,10.71,0,10.71l27.74.07-28.08,25,.09,11.12,48.18-.05ZM431.04,120.43v-46.87s-16.84.01-16.84.01v46.82s16.84.04,16.84.04ZM129.72,154.88l5.73-.08c3.19-.04,5.36-2.33,5.3-5.29-.05-2.62-2.03-5.17-5.04-5.2l-8.03-.08v18.13c-.01.54,1.97.57,1.97-.01l.06-7.46ZM168.68,161.02l-9.5-.05-.05-16.73c-.75.02-1.42.08-1.97.17l.02,18.35,10.74.02c.34,0,.95-.19,1.22-.3s-.07-1.46-.46-1.46ZM198.95,156.54l2.79,6.18c.7.09,1.58.1,2.21,0l-8.11-18.3c-.61-.22-1.52-.22-2.18,0l-7.98,18.13c.5.32,2.01.47,2.22-.02l2.64-6,8.41.03ZM222.65,162.4v-16.28s6.15-.08,6.15-.08l-.04-1.84h-14.14s.07,1.86.07,1.86l5.92.03.02,16.44c.62.25,1.59.25,2.03-.14ZM252.66,156.53l2.68,5.85c.26.58,2.17.68,2.21.12l-7.99-18c-.27-.6-2.12-.42-2.4.21l-7.85,17.83c.61.37,2,.39,2.22-.1l2.63-5.9h8.5ZM283.88,152.52l-7.78-.07.03-6.35,9.97-.02-.11-1.85-11.93-.03.02,18.38c.81.11,1.45.15,2.02.09l.02-8.35,7.84-.09c.49,0,.48-1.71-.09-1.72ZM319.67,153.71c.14-5.4-3.75-9.43-8.84-9.73-5.44-.32-9.85,3.34-10.28,8.75s3.47,9.9,8.94,10.29,10.04-3.58,10.18-9.31ZM345.43,162.7l2.27-.16-4.86-7.67c1.82,0,3.41-.21,4.62-1.27,1.76-1.53,2.14-4.04,1.2-6.16-.79-1.78-2.6-3.17-4.89-3.18h-7.71s-.05,18.22-.05,18.22c.48.35,2.05.31,2.05-.16l.06-7.43,2.42.04,4.88,7.76ZM381.44,162.5c.38.37,2.03.33,2.03-.16l.02-17.56c-.05-.45-1.42-.74-1.83-.57s-.88.76-1.15,1.35l-6.04,13.58-6.53-14.83-2.4-.11v18.35c.5.27,1.97.27,1.97-.21l.14-13.76,5.87,13.49c.12.27.65.66.93.72.21.05.81-.34.9-.55l5.93-13.6.14,13.85Z"/>
  <path d="M236.47,94.16c.17-3.43.12-6.4-.29-9.57l-13.14,29.42-2.93,6.45-14.95.02-16.17-36.06-.06,35.99-16.88.03-.02-63.96,19.2.03,21.44,45.99,21.41-46.03,19.11-.02.02,63.98-16.74.03v-26.29Z"/>
  <path d="M105.81,101.93c-2.74,4.2-6.93,6.37-11.58,6.25-4.92-.13-8.44-2.85-11.17-6.95l-19.04-28.49c-1.27-1.9-2.48-3.89-4.59-4.87l-11.26-5.23c-1.39-.64-2.37-1.85-2.45-3.23s.77-3.13,2.33-3.77l37.41-15.26c6.15-2.51,11.98-2.49,18.12,0l37.42,15.18c1.43.58,2.32,2.38,2.34,3.53.03,1.55-1.07,2.88-2.54,3.54l-9.85,4.42c-2.29,1.03-4.04,2.52-5.47,4.71l-19.67,30.16ZM96.07,87.61l15.14-23.66c.91-1.42,2.18-2.34,3.68-3.45l-17.42-6.5c-2.17-.81-3.74-.85-5.91-.04l-17.61,6.56c1.99,1.38,3.38,2.64,4.59,4.51l18.82,28.95-1.3-6.36Z"/>
  <path d="M298.42,102.96l17.32-.02c-1.29,4.94-4.16,8.41-7.84,11.54-13.88,10.97-43.13,9.06-51.21-7.91-2.88-6.06-2.73-13.2.13-19.24,2.16-4.56,5.82-7.85,10.14-10.29,5.81-3.27,12.2-4.24,18.88-4.26,7.9-.02,15.46,1.75,21.82,6.5s9.54,12.12,8.76,19.97l-44.8-.02c.24,5.78,4.51,10.12,9.98,11.29,2.72.45,5.41.41,8.11-.08,4.01-.93,7.17-3.28,8.69-7.47ZM297.58,89.34c-.85-1.97-2.09-3.06-3.62-4.1-4.25-2.44-9.25-2.91-13.9-1.28-2.74.98-5.13,2.47-6.67,5.37h24.19Z"/>
  <polygon points="411.88 120.42 363.7 120.47 363.61 109.35 391.69 84.35 363.94 84.28 363.95 73.57 411.26 73.57 411.33 84.42 382.96 109.52 411.85 109.56 411.88 120.42"/>
  <polygon points="362.34 120.45 314.39 120.49 314.39 109.17 342.18 84.41 314.62 84.29 314.63 73.57 361.76 73.57 361.8 84.38 333.82 109.45 362.3 109.57 362.34 120.45"/>
  <path d="M66.42,117.78c0,3.58-2.81,6.32-6.15,6.5-2.85.15-5.55.13-8.41.03-3.39-.12-6.14-2.96-6.14-6.39v-54.2s8.98,4.09,8.98,4.09c3.2,1.46,5.87,3.52,7.57,6.68,2.26,3.79,3.6,7.89,4.18,12.36l-.03,30.92Z"/>
  <path d="M122.53,117.76l.02-29.62c0-3.86,1.25-7.38,2.67-10.8,1.48-3.33,3.47-6.18,6.4-8.3l11.62-5.39.04,54.24c0,3.36-2.3,6.07-5.7,6.34-2.99.24-6.08.24-9.1,0-3.33-.26-5.95-3.01-5.95-6.48Z"/>
  <polygon points="431.04 120.43 414.2 120.39 414.2 73.58 431.05 73.56 431.04 120.43"/>
  <path d="M426.73,70.43c-5.53,1.54-13.32.13-13.87-6.47-.26-3.09,1.29-5.87,4.31-7.27s7-1.46,10.22-.3,5.01,4.07,4.91,7.26c-.1,3.19-2.14,5.83-5.57,6.79Z"/>
  <path d="M381.44,162.5l-.14-13.85-5.93,13.6c-.09.22-.69.6-.9.55-.28-.06-.82-.45-.93-.72l-5.87-13.49-.14,13.76c0,.48-1.47.48-1.97.21v-18.35s2.4.11,2.4.11l6.53,14.83,6.04-13.58c.26-.59.73-1.19,1.15-1.35s1.79.12,1.83.57l-.02,17.56c0,.49-1.65.53-2.03.16Z"/>
  <path d="M319.67,153.71c-.14,5.72-4.71,9.7-10.18,9.31s-9.37-4.88-8.94-10.29,4.84-9.07,10.28-8.75c5.09.3,8.97,4.33,8.84,9.73ZM317.53,153.38c-.04-1.86-.63-3.67-1.66-4.9-2.13-2.55-5.49-3.23-8.5-2.1-2.75,1.04-4.65,3.62-4.73,6.83-.11,4.31,3.1,7.91,7.34,7.99s7.64-3.3,7.55-7.83Z"/>
  <path d="M345.43,162.7l-4.88-7.76-2.42-.04-.06,7.43c0,.47-1.57.51-2.05.16l.05-18.23h7.71c2.29.01,4.1,1.41,4.89,3.19.94,2.12.56,4.63-1.2,6.16-1.22,1.06-2.8,1.26-4.62,1.27l4.86,7.67-2.27.16ZM343.53,153.12c2.18-.01,3.55-1.71,3.47-3.59s-1.36-3.4-3.49-3.42l-5.43-.03.09,7.06,5.36-.03Z"/>
  <path d="M198.95,156.54l-8.41-.03-2.64,6c-.22.49-1.73.34-2.22.02l7.98-18.13c.66-.22,1.57-.22,2.18,0l8.11,18.3c-.62.11-1.51.1-2.21,0l-2.79-6.18ZM198.17,154.74l-3.45-7.93-3.33,7.93h6.79Z"/>
  <path d="M252.66,156.53h-8.5s-2.63,5.91-2.63,5.91c-.22.5-1.61.47-2.22.1l7.85-17.83c.28-.63,2.13-.81,2.4-.21l7.99,18c-.04.55-1.95.45-2.21-.12l-2.68-5.85ZM251.88,154.79l-3.44-7.9-3.47,7.89h6.92Z"/>
  <path d="M129.72,154.88l-.06,7.46c0,.58-1.98.55-1.98.01v-18.13s8.04.08,8.04.08c3,.03,4.98,2.58,5.04,5.2.06,2.96-2.11,5.25-5.3,5.29l-5.73.08ZM136.53,152.78c1.93-.44,2.35-2.66,2.01-4.1s-1.71-2.61-3.4-2.61h-5.44s.02,6.98.02,6.98c2.33.04,4.51.25,6.8-.27Z"/>
  <path d="M283.88,152.52c.56,0,.58,1.71.09,1.72l-7.84.09-.02,8.35c-.57.06-1.21.02-2.02-.09l-.02-18.38,11.93.03.11,1.85-9.97.02-.03,6.35,7.78.07Z"/>
  <path d="M222.65,162.4c-.43.39-1.41.38-2.03.14l-.02-16.44-5.92-.03-.07-1.86h14.14s.04,1.83.04,1.83l-6.14.08v16.28Z"/>
  <path d="M168.68,161.02c.39,0,.74,1.35.46,1.46s-.88.3-1.22.3l-10.74-.02-.02-18.35c.55-.1,1.22-.15,1.97-.17l.05,16.73,9.5.05Z"/>
  <path class="cls-1" d="M96.07,87.61l1.3,6.36-18.82-28.95c-1.21-1.87-2.6-3.13-4.59-4.51l17.61-6.56c2.17-.81,3.74-.77,5.91.04l17.42,6.5c-1.49,1.11-2.77,2.03-3.68,3.45l-15.14,23.66Z"/>
  <path class="cls-1" d="M297.58,89.34h-24.19c1.55-2.91,3.94-4.39,6.67-5.38,4.65-1.63,9.64-1.17,13.9,1.28,1.52,1.04,2.76,2.13,3.62,4.1Z"/>
  <path class="cls-1" d="M317.53,153.38c.09,4.53-3.52,7.9-7.55,7.83-4.24-.08-7.45-3.67-7.34-7.99.08-3.21,1.97-5.8,4.73-6.83,3.01-1.13,6.37-.46,8.5,2.1,1.02,1.23,1.62,3.03,1.66,4.9Z"/>
  <path class="cls-1" d="M343.53,153.12l-5.36.03-.09-7.06,5.43.03c2.13.01,3.41,1.54,3.49,3.42s-1.29,3.57-3.47,3.59Z"/>
  <polygon class="cls-1" points="198.17 154.74 191.39 154.73 194.72 146.81 198.17 154.74"/>
  <polygon class="cls-1" points="251.88 154.79 244.96 154.78 248.43 146.89 251.88 154.79"/>
  <path class="cls-1" d="M136.53,152.78c-2.29.52-4.47.31-6.8.27l-.02-6.98h5.44c1.69,0,3.06,1.17,3.4,2.61s-.09,3.66-2.01,4.1Z"/>
</svg>